<svg height="480pt" viewBox="-63 0 479 480" width="480pt" xmlns="http://www.w3.org/2000/svg"><path d="m16.5 32h320v48h-320zm0 0" fill="#656665"/><path d="m112.5 80h-112v400h352v-400h-112" fill="#bab8b9"/><path d="m32.5 128h112v32h-112zm0 0" fill="#efedee"/><path d="m32.5 192h112v32h-112zm0 0" fill="#efedee"/><path d="m32.5 256h112v32h-112zm0 0" fill="#efedee"/><path d="m32.5 320h112v32h-112zm0 0" fill="#efedee"/><path d="m32.5 384h112v32h-112zm0 0" fill="#efedee"/><path d="m240.5 80v16h-128v-16c0-8.839844 7.160156-16 16-16h16v-32c0-17.671875 14.328125-32 32-32s32 14.328125 32 32v32h16c8.839844 0 16 7.160156 16 16zm0 0" fill="#eebc5a"/><g fill="#efedee"><path d="m168.5 24h16v16h-16zm0 0"/><path d="m168.5 120h80v16h-80zm0 0"/><path d="m168.5 152h160v16h-160zm0 0"/><path d="m168.5 184h80v16h-80zm0 0"/><path d="m168.5 216h160v16h-160zm0 0"/><path d="m168.5 248h80v16h-80zm0 0"/><path d="m168.5 280h160v16h-160zm0 0"/><path d="m168.5 312h80v16h-80zm0 0"/><path d="m168.5 344h160v16h-160zm0 0"/><path d="m168.5 376h80v16h-80zm0 0"/><path d="m168.5 408h160v16h-160zm0 0"/></g></svg>